STARTFONT 2.1
FONT -Monotype-Plantin-Bold-R-Normal--19-140-100-100-P-110-iso8859-5
SIZE 14 100 100
FONTBOUNDINGBOX 23 21 -1 -4

STARTPROPERTIES 24
FOUNDRY "Monotype"
FAMILY_NAME "Plantin"
WEIGHT_NAME "Bold"
SLANT "R"
SETWIDTH_NAME "Normal"
ADD_STYLE_NAME ""
PIXEL_SIZE 19
POINT_SIZE 140
RESOLUTION_X 100
RESOLUTION_Y 100
SPACING "P"
AVERAGE_WIDTH 110
CHARSET_REGISTRY "iso8859"
CHARSET_ENCODING "5"
FACE_NAME "Plantin Bold ISO Latin Cyrillic"
_DEC_DEVICE_FONTNAMES "PS=plantin-b-latcyrillic"
COPYRIGHT "Copyright (c) 1994 Monotype Typography Ltd."
CAP_HEIGHT 15
X_HEIGHT 9
WEIGHT 10
QUAD_WIDTH 13
DEFAULT_CHAR 160
FONT_DESCENT 5
FONT_ASCENT 17
ENDPROPERTIES

CHARS 191

STARTCHAR space
ENCODING 32
SWIDTH 250 0
DWIDTH 5 0
BBX 0 0 0 0
BITMAP
ENDCHAR

STARTCHAR exclam
ENCODING 33
SWIDTH 344 0
DWIDTH 7 0
BBX 3 14 2 0
BITMAP
40
E0
E0
E0
E0
E0
E0
40
40
00
00
E0
E0
E0
ENDCHAR

STARTCHAR quotedbl
ENCODING 34
SWIDTH 552 0
DWIDTH 10 0
BBX 7 6 1 8
BITMAP
44
EE
EE
EE
44
44
ENDCHAR

STARTCHAR numbersign
ENCODING 35
SWIDTH 500 0
DWIDTH 10 0
BBX 9 14 0 0
BITMAP
1100
1100
1100
1100
FF80
2200
2200
2200
2200
FF00
4400
4400
4400
4400
ENDCHAR

STARTCHAR dollar
ENCODING 36
SWIDTH 521 0
DWIDTH 10 0
BBX 8 16 1 -2
BITMAP
08
3E
6B
E9
E8
F8
7C
3E
1F
17
17
97
DE
7C
10
10
ENDCHAR

STARTCHAR percent
ENCODING 37
SWIDTH 927 0
DWIDTH 18 0
BBX 16 14 1 0
BITMAP
3810
6C30
EE20
EE60
EE40
6CC0
3880
019C
0136
0377
0277
0677
0436
0C1C
ENDCHAR

STARTCHAR ampersand
ENCODING 38
SWIDTH 781 0
DWIDTH 15 0
BBX 14 14 0 0
BITMAP
0780
0DC0
18C0
18C0
1D80
1F00
0E3C
1F18
3390
61E0
E0E0
E070
F0F8
7F3C
ENDCHAR

STARTCHAR quoteright
ENCODING 39
SWIDTH 344 0
DWIDTH 7 0
BBX 4 6 1 8
BITMAP
60
F0
70
30
20
C0
ENDCHAR

STARTCHAR parenleft
ENCODING 40
SWIDTH 417 0
DWIDTH 8 0
BBX 5 18 2 -4
BITMAP
08
10
20
60
60
C0
C0
C0
C0
C0
C0
C0
C0
60
60
20
10
08
ENDCHAR

STARTCHAR parenright
ENCODING 41
SWIDTH 417 0
DWIDTH 8 0
BBX 5 18 1 -4
BITMAP
80
40
20
30
30
18
18
18
18
18
18
18
18
30
30
20
40
80
ENDCHAR

STARTCHAR asterisk
ENCODING 42
SWIDTH 510 0
DWIDTH 10 0
BBX 8 9 1 5
BITMAP
10
18
18
DB
7E
3C
3C
66
42
ENDCHAR

STARTCHAR plus
ENCODING 43
SWIDTH 667 0
DWIDTH 13 0
BBX 10 10 1 1
BITMAP
0C00
0C00
0C00
0C00
FFC0
FFC0
0C00
0C00
0C00
0C00
ENDCHAR

STARTCHAR comma
ENCODING 44
SWIDTH 344 0
DWIDTH 7 0
BBX 4 6 1 -3
BITMAP
60
F0
70
30
20
C0
ENDCHAR

STARTCHAR minus
ENCODING 45
SWIDTH 667 0
DWIDTH 13 0
BBX 11 2 1 5
BITMAP
FFE0
FFE0
ENDCHAR

STARTCHAR period
ENCODING 46
SWIDTH 344 0
DWIDTH 7 0
BBX 3 3 2 0
BITMAP
E0
E0
E0
ENDCHAR

STARTCHAR slash
ENCODING 47
SWIDTH 281 0
DWIDTH 5 0
BBX 5 14 0 0
BITMAP
08
18
18
18
30
30
30
60
60
60
C0
C0
C0
80
ENDCHAR

STARTCHAR zero
ENCODING 48
SWIDTH 521 0
DWIDTH 10 0
BBX 9 14 0 0
BITMAP
1C00
2200
6300
6300
E380
E380
E380
E380
E380
E380
6300
6300
2200
1C00
ENDCHAR

STARTCHAR one
ENCODING 49
SWIDTH 521 0
DWIDTH 10 0
BBX 7 14 1 0
BITMAP
18
F8
38
38
38
38
38
38
38
38
38
38
38
FE
ENDCHAR

STARTCHAR two
ENCODING 50
SWIDTH 521 0
DWIDTH 10 0
BBX 9 14 0 0
BITMAP
3C00
6E00
4700
0700
0700
0700
0600
0E00
0C00
1800
1000
2080
7F80
FF00
ENDCHAR

STARTCHAR three
ENCODING 51
SWIDTH 521 0
DWIDTH 10 0
BBX 8 14 1 0
BITMAP
78
DC
8E
0E
0E
1C
38
0E
07
07
07
87
CE
78
ENDCHAR

STARTCHAR four
ENCODING 52
SWIDTH 521 0
DWIDTH 10 0
BBX 9 14 0 0
BITMAP
0200
0600
0600
0E00
1600
2600
2600
4600
8600
FF80
FF80
0600
0600
0600
ENDCHAR

STARTCHAR five
ENCODING 53
SWIDTH 521 0
DWIDTH 10 0
BBX 9 14 0 0
BITMAP
1F80
1F00
2000
2000
7C00
7E00
0E00
0700
0700
0700
0700
8700
CE00
7800
ENDCHAR

STARTCHAR six
ENCODING 54
SWIDTH 521 0
DWIDTH 10 0
BBX 9 14 0 0
BITMAP
0180
0600
1800
3000
6000
6E00
F300
E380
E380
E380
E380
E380
6700
3C00
ENDCHAR

STARTCHAR seven
ENCODING 55
SWIDTH 521 0
DWIDTH 10 0
BBX 8 14 1 0
BITMAP
7F
FF
83
06
06
06
04
0C
0C
0C
18
18
18
10
ENDCHAR

STARTCHAR eight
ENCODING 56
SWIDTH 521 0
DWIDTH 10 0
BBX 9 14 0 0
BITMAP
3C00
7600
E300
E300
E300
F600
7C00
3E00
2F00
4780
C380
C380
6700
3E00
ENDCHAR

STARTCHAR nine
ENCODING 57
SWIDTH 521 0
DWIDTH 10 0
BBX 9 14 0 0
BITMAP
1E00
7300
E380
E380
E380
E380
E380
6780
3B00
0300
0600
0C00
3000
C000
ENDCHAR

STARTCHAR colon
ENCODING 58
SWIDTH 344 0
DWIDTH 7 0
BBX 3 9 2 0
BITMAP
E0
E0
E0
00
00
00
E0
E0
E0
ENDCHAR

STARTCHAR semicolon
ENCODING 59
SWIDTH 344 0
DWIDTH 7 0
BBX 4 12 1 -3
BITMAP
70
70
70
00
00
00
60
F0
70
30
20
C0
ENDCHAR

STARTCHAR less
ENCODING 60
SWIDTH 667 0
DWIDTH 13 0
BBX 11 10 1 1
BITMAP
0060
01E0
0F80
3E00
F000
F000
3E00
0F80
01E0
0060
ENDCHAR

STARTCHAR equal
ENCODING 61
SWIDTH 667 0
DWIDTH 13 0
BBX 11 6 1 3
BITMAP
FFE0
FFE0
0000
0000
FFE0
FFE0
ENDCHAR

STARTCHAR greater
ENCODING 62
SWIDTH 667 0
DWIDTH 13 0
BBX 11 10 1 1
BITMAP
C000
F000
3E00
0F80
01E0
01E0
0F80
3E00
F000
C000
ENDCHAR

STARTCHAR question
ENCODING 63
SWIDTH 458 0
DWIDTH 9 0
BBX 7 14 1 0
BITMAP
78
DC
8E
0E
0E
3E
3C
30
20
00
00
70
70
70
ENDCHAR

STARTCHAR at
ENCODING 64
SWIDTH 927 0
DWIDTH 18 0
BBX 16 18 1 -4
BITMAP
03E0
0C18
1004
2002
41B2
4371
8631
8631
8661
8C61
8C62
8CE2
8D64
4639
4002
2004
1818
07E0
ENDCHAR

STARTCHAR A
ENCODING 65
SWIDTH 781 0
DWIDTH 15 0
BBX 15 14 0 0
BITMAP
0700
0380
0380
0380
05C0
05C0
08E0
08E0
1FE0
1070
1070
2038
2038
F8FE
ENDCHAR

STARTCHAR B
ENCODING 66
SWIDTH 781 0
DWIDTH 15 0
BBX 13 14 0 0
BITMAP
FFE0
3870
3838
3838
3830
3860
3FE0
3870
3838
3838
3838
3838
3870
FFE0
ENDCHAR

STARTCHAR C
ENCODING 67
SWIDTH 802 0
DWIDTH 15 0
BBX 13 14 1 0
BITMAP
07F0
1E18
3808
7008
7000
E000
E000
E000
E000
7000
7008
3818
1E38
07F0
ENDCHAR

STARTCHAR D
ENCODING 68
SWIDTH 875 0
DWIDTH 17 0
BBX 15 14 1 0
BITMAP
FFC0
38F0
3838
381C
381C
380E
380E
380E
380E
381C
381C
3838
38F0
FFC0
ENDCHAR

STARTCHAR E
ENCODING 69
SWIDTH 750 0
DWIDTH 14 0
BBX 13 14 0 0
BITMAP
FFF8
3818
3808
3800
3800
3820
3FE0
3820
3800
3800
3808
3808
3818
FFF8
ENDCHAR

STARTCHAR F
ENCODING 70
SWIDTH 687 0
DWIDTH 13 0
BBX 12 14 0 0
BITMAP
FFF0
3830
3810
3800
3800
3840
3FC0
3840
3800
3800
3800
3800
3800
FE00
ENDCHAR

STARTCHAR G
ENCODING 71
SWIDTH 844 0
DWIDTH 16 0
BBX 15 14 1 0
BITMAP
07F0
1E18
3808
7008
7000
E000
E000
E0FE
E038
7038
7038
3838
1E30
07E0
ENDCHAR

STARTCHAR H
ENCODING 72
SWIDTH 875 0
DWIDTH 17 0
BBX 16 14 0 0
BITMAP
FE7F
381C
381C
381C
381C
381C
3FFC
381C
381C
381C
381C
381C
381C
FE7F
ENDCHAR

STARTCHAR I
ENCODING 73
SWIDTH 406 0
DWIDTH 8 0
BBX 7 14 0 0
BITMAP
FE
38
38
38
38
38
38
38
38
38
38
38
38
FE
ENDCHAR

STARTCHAR J
ENCODING 74
SWIDTH 406 0
DWIDTH 8 0
BBX 8 18 -1 -4
BITMAP
7F
1C
1C
1C
1C
1C
1C
1C
1C
1C
1C
1C
1C
1C
1C
1C
D8
70
ENDCHAR

STARTCHAR K
ENCODING 75
SWIDTH 781 0
DWIDTH 15 0
BBX 15 14 0 0
BITMAP
FE7E
3818
3830
3820
3840
3880
3B00
3F00
3B80
3BC0
39E0
38F0
3878
FE7E
ENDCHAR

STARTCHAR L
ENCODING 76
SWIDTH 687 0
DWIDTH 13 0
BBX 12 14 0 0
BITMAP
FE00
3800
3800
3800
3800
3800
3800
3800
3800
3800
3810
3810
3830
FFE0
ENDCHAR

STARTCHAR M
ENCODING 77
SWIDTH 1010 0
DWIDTH 19 0
BBX 19 14 0 0
BITMAP
7C07C0
1C0700
1C0700
1E0F00
1E0F00
171F00
171700
173700
23A380
23E380
21C380
21C380
20C380
F88FE0
ENDCHAR

STARTCHAR N
ENCODING 78
SWIDTH 792 0
DWIDTH 15 0
BBX 15 14 0 0
BITMAP
E03E
7008
3808
3C08
2E08
2708
2388
2388
21C8
20E8
2078
2038
2018
F808
ENDCHAR

STARTCHAR O
ENCODING 79
SWIDTH 875 0
DWIDTH 17 0
BBX 15 14 1 0
BITMAP
07C0
1C70
3838
701C
701C
E00E
E00E
E00E
E00E
701C
701C
3838
1C70
07C0
ENDCHAR

STARTCHAR P
ENCODING 80
SWIDTH 729 0
DWIDTH 14 0
BBX 13 14 0 0
BITMAP
FFC0
3870
3838
3838
3838
3870
3BC0
3800
3800
3800
3800
3800
3800
FE00
ENDCHAR

STARTCHAR Q
ENCODING 81
SWIDTH 865 0
DWIDTH 16 0
BBX 15 18 0 -4
BITMAP
07C0
1C70
3838
701C
701C
E00E
E00E
E00E
E00E
701C
701C
3838
1C70
07C0
0380
01E0
0078
001E
ENDCHAR

STARTCHAR R
ENCODING 82
SWIDTH 771 0
DWIDTH 15 0
BBX 15 14 0 0
BITMAP
FFC0
3870
3838
3838
3838
3838
3870
3FC0
3B80
39C0
38E0
3870
3838
FE7E
ENDCHAR

STARTCHAR S
ENCODING 83
SWIDTH 656 0
DWIDTH 12 0
BBX 10 14 1 0
BITMAP
3F00
7180
E080
E080
F800
7C00
3F00
0F80
03C0
01C0
81C0
81C0
C380
7F00
ENDCHAR

STARTCHAR T
ENCODING 84
SWIDTH 740 0
DWIDTH 14 0
BBX 13 14 0 0
BITMAP
7FF0
C718
8708
8708
0700
0700
0700
0700
0700
0700
0700
0700
0700
1FC0
ENDCHAR

STARTCHAR U
ENCODING 85
SWIDTH 833 0
DWIDTH 16 0
BBX 16 14 0 0
BITMAP
FE1F
3804
3804
3804
3804
3804
3804
3804
3804
3804
3804
1C08
0E30
03C0
ENDCHAR

STARTCHAR V
ENCODING 86
SWIDTH 729 0
DWIDTH 14 0
BBX 14 14 0 0
BITMAP
FC7C
7010
3810
3820
1C20
1C20
0E40
0E40
0F80
0780
0780
0300
0300
0100
ENDCHAR

STARTCHAR W
ENCODING 87
SWIDTH 1031 0
DWIDTH 20 0
BBX 20 14 0 0
BITMAP
F9F1F0
70E040
70E040
387080
387080
387080
1CB900
1CB900
0F1D00
0F1E00
0F1E00
060C00
060C00
020800
ENDCHAR

STARTCHAR X
ENCODING 88
SWIDTH 781 0
DWIDTH 15 0
BBX 16 14 -1 0
BITMAP
FE0F
3804
1C08
0E10
0E20
0740
0380
01C0
01C0
02E0
0470
0838
101C
7C7F
ENDCHAR

STARTCHAR Y
ENCODING 89
SWIDTH 729 0
DWIDTH 14 0
BBX 14 14 0 0
BITMAP
FE7C
3810
1C10
1C20
0E20
0E20
0740
07C0
0780
0380
0380
0700
0700
1FC0
ENDCHAR

STARTCHAR Z
ENCODING 90
SWIDTH 687 0
DWIDTH 13 0
BBX 11 14 1 0
BITMAP
FFE0
C0E0
81C0
81C0
0380
0700
0E00
0E00
1C00
3800
7020
7020
E060
FFE0
ENDCHAR

STARTCHAR bracketleft
ENCODING 91
SWIDTH 396 0
DWIDTH 8 0
BBX 5 18 2 -4
BITMAP
F8
E0
E0
E0
E0
E0
E0
E0
E0
E0
E0
E0
E0
E0
E0
E0
E0
F8
ENDCHAR

STARTCHAR backslash
ENCODING 92
SWIDTH 281 0
DWIDTH 5 0
BBX 5 14 0 0
BITMAP
80
C0
C0
C0
60
60
60
30
30
30
18
18
18
08
ENDCHAR

STARTCHAR bracketright
ENCODING 93
SWIDTH 396 0
DWIDTH 8 0
BBX 5 18 1 -4
BITMAP
F8
38
38
38
38
38
38
38
38
38
38
38
38
38
38
38
38
F8
ENDCHAR

STARTCHAR asciicircum
ENCODING 94
SWIDTH 583 0
DWIDTH 11 0
BBX 9 7 1 7
BITMAP
0800
1C00
3600
3600
6300
6300
C180
ENDCHAR

STARTCHAR underscore
ENCODING 95
SWIDTH 500 0
DWIDTH 10 0
BBX 10 1 0 -4
BITMAP
FFC0
ENDCHAR

STARTCHAR quoteleft
ENCODING 96
SWIDTH 344 0
DWIDTH 7 0
BBX 4 6 1 8
BITMAP
30
40
C0
E0
F0
60
ENDCHAR

STARTCHAR a
ENCODING 97
SWIDTH 562 0
DWIDTH 11 0
BBX 10 9 0 0
BITMAP
7F00
E380
C380
0380
1F80
6380
E380
E780
7BC0
ENDCHAR

STARTCHAR b
ENCODING 98
SWIDTH 604 0
DWIDTH 12 0
BBX 11 14 0 0
BITMAP
1000
F000
7000
7000
7000
7780
79C0
70E0
70E0
70E0
70E0
70E0
39C0
1F00
ENDCHAR

STARTCHAR c
ENCODING 99
SWIDTH 521 0
DWIDTH 10 0
BBX 9 9 0 0
BITMAP
1F00
7380
E180
E000
E000
E000
E080
7100
3E00
ENDCHAR

STARTCHAR d
ENCODING 100
SWIDTH 615 0
DWIDTH 13 0
BBX 11 14 1 0
BITMAP
0040
03C0
01C0
01C0
01C0
3DC0
73C0
E1C0
E1C0
E1C0
E1C0
E1C0
73C0
3DE0
ENDCHAR

STARTCHAR e
ENCODING 101
SWIDTH 521 0
DWIDTH 10 0
BBX 8 9 1 0
BITMAP
3C
66
E7
FF
E0
E0
E1
72
3C
ENDCHAR

STARTCHAR f
ENCODING 102
SWIDTH 354 0
DWIDTH 7 0
BBX 9 14 0 0
BITMAP
0F00
1D80
3880
3800
3800
FE00
3800
3800
3800
3800
3800
3800
3800
FE00
ENDCHAR

STARTCHAR g
ENCODING 103
SWIDTH 552 0
DWIDTH 10 0
BBX 9 13 0 -4
BITMAP
3D80
6700
E700
E700
6600
3C00
6000
FE00
3F00
6380
C180
C300
7E00
ENDCHAR

STARTCHAR h
ENCODING 104
SWIDTH 625 0
DWIDTH 12 0
BBX 11 14 0 0
BITMAP
1000
F000
7000
7000
7000
7780
79C0
71C0
71C0
71C0
71C0
71C0
71C0
FBE0
ENDCHAR

STARTCHAR i
ENCODING 105
SWIDTH 333 0
DWIDTH 6 0
BBX 5 14 0 0
BITMAP
70
70
70
00
00
10
F0
70
70
70
70
70
70
F8
ENDCHAR

STARTCHAR j
ENCODING 106
SWIDTH 313 0
DWIDTH 5 0
BBX 4 18 0 -4
BITMAP
70
70
70
00
00
10
F0
70
70
70
70
70
70
70
60
60
40
80
ENDCHAR

STARTCHAR k
ENCODING 107
SWIDTH 552 0
DWIDTH 10 0
BBX 11 14 0 0
BITMAP
1000
F000
7000
7000
7000
77C0
7300
7200
7C00
7E00
7700
7380
71C0
F8E0
ENDCHAR

STARTCHAR l
ENCODING 108
SWIDTH 312 0
DWIDTH 6 0
BBX 5 14 0 0
BITMAP
10
F0
70
70
70
70
70
70
70
70
70
70
70
F8
ENDCHAR

STARTCHAR m
ENCODING 109
SWIDTH 979 0
DWIDTH 18 0
BBX 17 9 0 0
BITMAP
179E00
F9E700
71C700
71C700
71C700
71C700
71C700
71C700
FBEF80
ENDCHAR

STARTCHAR n
ENCODING 110
SWIDTH 625 0
DWIDTH 12 0
BBX 11 9 0 0
BITMAP
1780
F9C0
71C0
71C0
71C0
71C0
71C0
71C0
FBE0
ENDCHAR

STARTCHAR o
ENCODING 111
SWIDTH 573 0
DWIDTH 11 0
BBX 9 9 1 0
BITMAP
3E00
6300
E380
E380
E380
E380
E380
6300
3E00
ENDCHAR

STARTCHAR p
ENCODING 112
SWIDTH 615 0
DWIDTH 12 0
BBX 11 13 0 -4
BITMAP
1780
F9C0
70E0
70E0
70E0
70E0
70E0
79C0
7780
7000
7000
7000
F800
ENDCHAR

STARTCHAR q
ENCODING 113
SWIDTH 615 0
DWIDTH 12 0
BBX 11 13 1 -4
BITMAP
3E40
73C0
E1C0
E1C0
E1C0
E1C0
E1C0
73C0
3DC0
01C0
01C0
01C0
03E0
ENDCHAR

STARTCHAR r
ENCODING 114
SWIDTH 479 0
DWIDTH 8 0
BBX 8 9 0 0
BITMAP
13
F7
79
70
70
70
70
70
F8
ENDCHAR

STARTCHAR s
ENCODING 115
SWIDTH 458 0
DWIDTH 9 0
BBX 7 9 1 0
BITMAP
7C
E6
E2
F8
7C
1E
8E
CE
7C
ENDCHAR

STARTCHAR t
ENCODING 116
SWIDTH 375 0
DWIDTH 7 0
BBX 6 11 1 0
BITMAP
10
30
FC
70
70
70
70
70
70
74
38
ENDCHAR

STARTCHAR u
ENCODING 117
SWIDTH 625 0
DWIDTH 12 0
BBX 11 9 0 0
BITMAP
F3C0
71C0
71C0
71C0
71C0
71C0
71C0
73C0
3DE0
ENDCHAR

STARTCHAR v
ENCODING 118
SWIDTH 542 0
DWIDTH 10 0
BBX 11 9 0 0
BITMAP
F9E0
70C0
7080
3900
3900
1E00
1E00
0C00
0400
ENDCHAR

STARTCHAR w
ENCODING 119
SWIDTH 771 0
DWIDTH 15 0
BBX 16 9 -1 0
BITMAP
FBEF
71C6
70C4
39E8
3968
1E70
1E70
0C30
0420
ENDCHAR

STARTCHAR x
ENCODING 120
SWIDTH 552 0
DWIDTH 10 0
BBX 11 9 0 0
BITMAP
FBC0
7180
3900
1E00
0E00
1700
2380
61C0
F3E0
ENDCHAR

STARTCHAR y
ENCODING 121
SWIDTH 542 0
DWIDTH 10 0
BBX 11 13 0 -4
BITMAP
F9E0
70C0
7080
3880
3900
1D00
1D00
0E00
0E00
0400
0400
6800
3000
ENDCHAR

STARTCHAR z
ENCODING 122
SWIDTH 510 0
DWIDTH 10 0
BBX 9 9 0 0
BITMAP
FF80
C380
8700
0E00
0C00
1C00
3880
7180
FF80
ENDCHAR

STARTCHAR braceleft
ENCODING 123
SWIDTH 396 0
DWIDTH 8 0
BBX 6 18 1 -4
BITMAP
0C
10
30
30
30
30
30
20
C0
C0
20
30
30
30
30
30
10
0C
ENDCHAR

STARTCHAR bar
ENCODING 124
SWIDTH 219 0
DWIDTH 4 0
BBX 1 18 1 -4
BITMAP
80
80
80
80
80
80
80
80
80
80
80
80
80
80
80
80
80
80
ENDCHAR

STARTCHAR braceright
ENCODING 125
SWIDTH 396 0
DWIDTH 8 0
BBX 6 18 1 -4
BITMAP
C0
20
30
30
30
30
30
10
0C
0C
10
30
30
30
30
30
20
C0
ENDCHAR

STARTCHAR asciitilde
ENCODING 126
SWIDTH 521 0
DWIDTH 10 0
BBX 10 3 0 5
BITMAP
3840
7F80
8700
ENDCHAR

STARTCHAR space
ENCODING 160
SWIDTH 250 0
DWIDTH 6 0
BBX 0 0 0 0
BITMAP
ENDCHAR

STARTCHAR afii10023
ENCODING 161
SWIDTH 750 0
DWIDTH 14 0
BBX 13 17 0 0
BITMAP
0CC0
0CC0
0000
FFF8
3818
3808
3800
3800
3820
3FE0
3820
3800
3800
3808
3808
3818
FFF8
ENDCHAR

STARTCHAR afii10051
ENCODING 162
SWIDTH 850 0
DWIDTH 16 0
BBX 15 14 0 0
BITMAP
7FC0
CE60
8E20
8E20
0E00
0EF0
0F18
0E0C
0E0E
0E0E
0E0E
0E4E
0E6C
3F38
ENDCHAR

STARTCHAR afii10052
ENCODING 163
SWIDTH 646 0
DWIDTH 12 0
BBX 12 17 0 0
BITMAP
0380
0600
0000
FFF0
3830
3810
3810
3800
3800
3800
3800
3800
3800
3800
3800
3800
FE00
ENDCHAR

STARTCHAR afii10053
ENCODING 164
SWIDTH 813 0
DWIDTH 15 0
BBX 13 14 1 0
BITMAP
07F0
1E18
3808
7008
7000
E000
FFC0
E000
E000
7000
7008
3818
1E30
07E0
ENDCHAR

STARTCHAR afii10054
ENCODING 165
SWIDTH 656 0
DWIDTH 12 0
BBX 10 14 1 0
BITMAP
3F00
7180
E080
E080
F800
7C00
3F00
0F80
03C0
01C0
81C0
81C0
C380
7F00
ENDCHAR

STARTCHAR afii10055
ENCODING 166
SWIDTH 406 0
DWIDTH 8 0
BBX 7 14 0 0
BITMAP
FE
38
38
38
38
38
38
38
38
38
38
38
38
FE
ENDCHAR

STARTCHAR afii10056
ENCODING 167
SWIDTH 406 0
DWIDTH 8 0
BBX 7 17 0 0
BITMAP
66
66
00
FE
38
38
38
38
38
38
38
38
38
38
38
38
FE
ENDCHAR

STARTCHAR afii10057
ENCODING 168
SWIDTH 406 0
DWIDTH 8 0
BBX 8 18 -1 -4
BITMAP
7F
1C
1C
1C
1C
1C
1C
1C
1C
1C
1C
1C
1C
1C
1C
1C
D8
70
ENDCHAR

STARTCHAR afii10058
ENCODING 169
SWIDTH 1086 0
DWIDTH 21 0
BBX 20 14 0 0
BITMAP
3FFC00
087000
087000
087000
087000
087000
087FC0
0870E0
087070
087070
087070
887070
D070E0
61FFC0
ENDCHAR

STARTCHAR afii10059
ENCODING 170
SWIDTH 1095 0
DWIDTH 21 0
BBX 20 14 0 0
BITMAP
FCFC00
387000
387000
387000
387000
387000
3FFFC0
3870E0
387070
387070
387070
387070
3870E0
FEFFC0
ENDCHAR

STARTCHAR afii10060
ENCODING 171
SWIDTH 854 0
DWIDTH 17 0
BBX 16 14 0 0
BITMAP
7FE0
CE30
8E10
8E10
0E00
0EF0
0F18
0E1C
0E1C
0E1C
0E1C
0E1C
0E1C
3FBF
ENDCHAR

STARTCHAR afii10061
ENCODING 172
SWIDTH 781 0
DWIDTH 15 0
BBX 15 17 0 0
BITMAP
01C0
0300
0000
FE38
386C
3848
3840
3880
3880
3900
3F00
3B80
39C0
38E0
3870
3878
FE3E
ENDCHAR

STARTCHAR hyphen
ENCODING 173
SWIDTH 458 0
DWIDTH 9 0
BBX 7 2 1 4
BITMAP
FE
FE
ENDCHAR

STARTCHAR afii10062
ENCODING 174
SWIDTH 750 0
DWIDTH 14 0
BBX 13 17 1 0
BITMAP
0CC0
0780
0000
F838
7010
7010
3820
3820
1C40
1C40
0E80
0E80
0780
0700
4300
6200
3C00
ENDCHAR

STARTCHAR afii10145
ENCODING 175
SWIDTH 854 0
DWIDTH 17 0
BBX 16 17 0 -3
BITMAP
FE7F
381C
381C
381C
381C
381C
381C
381C
381C
381C
381C
381C
381C
FFFF
0180
0180
0180
ENDCHAR

STARTCHAR afii10017
ENCODING 176
SWIDTH 781 0
DWIDTH 15 0
BBX 15 14 0 0
BITMAP
0700
0380
0380
0380
05C0
05C0
08E0
08E0
1FE0
1070
1070
2038
2038
F8FE
ENDCHAR

STARTCHAR afii10018
ENCODING 177
SWIDTH 740 0
DWIDTH 14 0
BBX 13 14 0 0
BITMAP
FFF0
3830
3810
3810
3800
3800
3FE0
3870
3838
3838
3838
3838
3870
FFE0
ENDCHAR

STARTCHAR afii10019
ENCODING 178
SWIDTH 781 0
DWIDTH 15 0
BBX 13 14 0 0
BITMAP
FFE0
3870
3838
3838
3830
3860
3FE0
3870
3838
3838
3838
3838
3870
FFE0
ENDCHAR

STARTCHAR afii10020
ENCODING 179
SWIDTH 646 0
DWIDTH 12 0
BBX 12 14 0 0
BITMAP
FFF0
3830
3810
3810
3800
3800
3800
3800
3800
3800
3800
3800
3800
FE00
ENDCHAR

STARTCHAR afii10021
ENCODING 180
SWIDTH 781 0
DWIDTH 15 0
BBX 14 17 0 -3
BITMAP
7FFC
1070
1070
1070
1070
1070
1070
1070
1070
1070
2070
2070
2070
FFFC
C00C
C00C
8004
ENDCHAR

STARTCHAR afii10022
ENCODING 181
SWIDTH 750 0
DWIDTH 14 0
BBX 13 14 0 0
BITMAP
FFF8
3818
3808
3800
3800
3820
3FE0
3820
3800
3800
3808
3808
3818
FFF8
ENDCHAR

STARTCHAR afii10024
ENCODING 182
SWIDTH 1094 0
DWIDTH 21 0
BBX 19 14 1 0
BITMAP
73F9C0
D8E360
8CE620
0CE600
0CE600
06EC00
07FC00
06EC00
0EEE00
0CE600
1CE700
38E380
70E1C0
F3F9E0
ENDCHAR

STARTCHAR afii10025
ENCODING 183
SWIDTH 750 0
DWIDTH 14 0
BBX 12 14 1 0
BITMAP
7F80
E0E0
C070
8070
0070
00E0
1FE0
00F0
0070
0070
8070
C0E0
63C0
3F00
ENDCHAR

STARTCHAR afii10026
ENCODING 184
SWIDTH 854 0
DWIDTH 17 0
BBX 16 14 0 0
BITMAP
FE7F
381C
381C
381C
383C
385C
389C
391C
3A1C
3C1C
381C
381C
381C
FE7F
ENDCHAR

STARTCHAR afii10027
ENCODING 185
SWIDTH 854 0
DWIDTH 17 0
BBX 16 17 0 0
BITMAP
0660
03C0
0000
FE7F
381C
381C
381C
383C
385C
389C
391C
3A1C
3C1C
381C
381C
381C
FE7F
ENDCHAR

STARTCHAR afii10028
ENCODING 186
SWIDTH 781 0
DWIDTH 15 0
BBX 15 14 0 0
BITMAP
FE38
386C
3848
3840
3880
3880
3900
3F00
3B80
39C0
38E0
3870
3878
FE3E
ENDCHAR

STARTCHAR afii10029
ENCODING 187
SWIDTH 833 0
DWIDTH 15 0
BBX 14 14 0 0
BITMAP
3FFC
0870
0870
0870
0870
0870
0870
0870
0870
0870
0870
8870
D070
61FC
ENDCHAR

STARTCHAR afii10030
ENCODING 188
SWIDTH 1010 0
DWIDTH 19 0
BBX 19 14 0 0
BITMAP
7C07C0
1C0700
1C0700
1E0F00
1E0F00
171F00
171700
173700
23A380
23E380
21C380
21C380
20C380
F88FE0
ENDCHAR

STARTCHAR afii10031
ENCODING 189
SWIDTH 875 0
DWIDTH 17 0
BBX 16 14 0 0
BITMAP
FE7F
381C
381C
381C
381C
381C
3FFC
381C
381C
381C
381C
381C
381C
FE7F
ENDCHAR

STARTCHAR afii10032
ENCODING 190
SWIDTH 875 0
DWIDTH 17 0
BBX 15 14 1 0
BITMAP
07C0
1C70
3838
701C
701C
E00E
E00E
E00E
E00E
701C
701C
3838
1C70
07C0
ENDCHAR

STARTCHAR afii10033
ENCODING 191
SWIDTH 854 0
DWIDTH 17 0
BBX 16 14 0 0
BITMAP
FFFF
381C
381C
381C
381C
381C
381C
381C
381C
381C
381C
381C
381C
FE7F
ENDCHAR

STARTCHAR afii10034
ENCODING 192
SWIDTH 729 0
DWIDTH 14 0
BBX 13 14 0 0
BITMAP
FFC0
3870
3838
3838
3838
3870
3BC0
3800
3800
3800
3800
3800
3800
FE00
ENDCHAR

STARTCHAR afii10035
ENCODING 193
SWIDTH 802 0
DWIDTH 15 0
BBX 13 14 1 0
BITMAP
07F0
1E18
3808
7008
7000
E000
E000
E000
E000
7000
7008
3818
1E38
07F0
ENDCHAR

STARTCHAR afii10036
ENCODING 194
SWIDTH 740 0
DWIDTH 14 0
BBX 13 14 0 0
BITMAP
7FF0
C718
8708
8708
0700
0700
0700
0700
0700
0700
0700
0700
0700
1FC0
ENDCHAR

STARTCHAR afii10037
ENCODING 195
SWIDTH 750 0
DWIDTH 14 0
BBX 13 14 1 0
BITMAP
F838
7010
7010
3820
3820
1C40
1C40
0E80
0E80
0780
0700
4300
6200
3C00
ENDCHAR

STARTCHAR afii10038
ENCODING 196
SWIDTH 974 0
DWIDTH 19 0
BBX 17 14 1 0
BITMAP
07F000
01C000
01C000
1FFC00
71C700
E1C380
E1C380
E1C380
E1C380
71C700
1FFC00
01C000
01C000
07F000
ENDCHAR

STARTCHAR afii10039
ENCODING 197
SWIDTH 781 0
DWIDTH 15 0
BBX 16 14 -1 0
BITMAP
FE0F
3804
1C08
0E10
0E20
0740
0380
01C0
01C0
02E0
0470
0838
101C
7C7F
ENDCHAR

STARTCHAR afii10040
ENCODING 198
SWIDTH 854 0
DWIDTH 17 0
BBX 16 17 0 -3
BITMAP
FE7F
381C
381C
381C
381C
381C
381C
381C
381C
381C
381C
381C
381C
FE7F
0003
0001
0001
ENDCHAR

STARTCHAR afii10041
ENCODING 199
SWIDTH 854 0
DWIDTH 17 0
BBX 16 14 0 0
BITMAP
FE7F
381C
381C
381C
381C
381C
381C
383C
1C5C
0F9C
001C
001C
001C
007F
ENDCHAR

STARTCHAR afii10042
ENCODING 200
SWIDTH 1125 0
DWIDTH 22 0
BBX 21 14 0 0
BITMAP
FEFBF8
3870E0
3870E0
3870E0
3870E0
3870E0
3870E0
3870E0
3870E0
3870E0
3870E0
3870E0
3870E0
FFFFF8
ENDCHAR

STARTCHAR afii10043
ENCODING 201
SWIDTH 1125 0
DWIDTH 22 0
BBX 21 17 0 -3
BITMAP
FEFBF8
3870E0
3870E0
3870E0
3870E0
3870E0
3870E0
3870E0
3870E0
3870E0
3870E0
3870E0
3870E0
FFFFF8
000018
000018
000008
ENDCHAR

STARTCHAR afii10044
ENCODING 202
SWIDTH 832 0
DWIDTH 16 0
BBX 15 14 0 0
BITMAP
FFC0
C700
8700
8700
0700
0700
07F8
071C
070E
070E
070E
070E
071C
1FF8
ENDCHAR

STARTCHAR afii10045
ENCODING 203
SWIDTH 1125 0
DWIDTH 21 0
BBX 20 14 0 0
BITMAP
FE07F0
3801C0
3801C0
3801C0
3801C0
3801C0
3FE1C0
3871C0
3839C0
3839C0
3839C0
3839C0
3871C0
FFE7F0
ENDCHAR

STARTCHAR afii10046
ENCODING 204
SWIDTH 721 0
DWIDTH 14 0
BBX 13 14 0 0
BITMAP
FE00
3800
3800
3800
3800
3800
3FE0
3870
3838
3838
3838
3838
3870
FFE0
ENDCHAR

STARTCHAR afii10047
ENCODING 205
SWIDTH 802 0
DWIDTH 15 0
BBX 13 14 1 0
BITMAP
7F00
C3C0
80E0
8070
0070
0038
1FF8
0038
0038
0070
8070
C0E0
63C0
3F00
ENDCHAR

STARTCHAR afii10048
ENCODING 206
SWIDTH 1219 0
DWIDTH 23 0
BBX 22 14 0 0
BITMAP
FE0F80
3838E0
387070
38E038
38E038
39C01C
3FC01C
39C01C
39C01C
38E038
38E038
387070
3838E0
FE0F80
ENDCHAR

STARTCHAR afii10049
ENCODING 207
SWIDTH 802 0
DWIDTH 15 0
BBX 15 14 -1 0
BITMAP
07FE
1C38
3838
3838
3838
3838
1C38
07F8
03B8
0738
0E38
1C38
3838
FCFE
ENDCHAR

STARTCHAR afii10065
ENCODING 208
SWIDTH 563 0
DWIDTH 11 0
BBX 10 9 0 0
BITMAP
7F00
E380
C380
0380
1F80
6380
E380
E780
7BC0
ENDCHAR

STARTCHAR afii10066
ENCODING 209
SWIDTH 583 0
DWIDTH 12 0
BBX 10 14 1 0
BITMAP
0040
0F80
3C00
6000
C000
DF00
F380
E1C0
E1C0
E1C0
E1C0
E1C0
7380
3F00
ENDCHAR

STARTCHAR afii10067
ENCODING 210
SWIDTH 573 0
DWIDTH 11 0
BBX 10 9 0 0
BITMAP
FF80
71C0
71C0
7180
7E00
7180
71C0
71C0
FF80
ENDCHAR

STARTCHAR afii10068
ENCODING 211
SWIDTH 542 0
DWIDTH 9 0
BBX 9 9 0 0
BITMAP
FF80
7180
7080
7000
7000
7000
7000
7000
F800
ENDCHAR

STARTCHAR afii10069
ENCODING 212
SWIDTH 565 0
DWIDTH 11 0
BBX 10 12 0 -3
BITMAP
7FC0
2380
2380
2380
2380
2380
4380
4380
FFC0
C0C0
C0C0
8040
ENDCHAR

STARTCHAR afii10070
ENCODING 213
SWIDTH 521 0
DWIDTH 10 0
BBX 8 9 1 0
BITMAP
3C
66
E7
FF
E0
E0
E1
72
3C
ENDCHAR

STARTCHAR afii10072
ENCODING 214
SWIDTH 1021 0
DWIDTH 19 0
BBX 19 9 0 0
BITMAP
71F1C0
58E340
04E400
06EC00
0FFE00
1CE700
38E380
70E1C0
F1F1E0
ENDCHAR

STARTCHAR afii10073
ENCODING 215
SWIDTH 521 0
DWIDTH 10 0
BBX 8 9 1 0
BITMAP
7C
C6
87
06
38
06
87
C6
7C
ENDCHAR

STARTCHAR afii10074
ENCODING 216
SWIDTH 625 0
DWIDTH 12 0
BBX 11 9 0 0
BITMAP
FBE0
71C0
71C0
73C0
75C0
79C0
71C0
71C0
FBE0
ENDCHAR

STARTCHAR afii10075
ENCODING 217
SWIDTH 625 0
DWIDTH 12 0
BBX 11 12 0 0
BITMAP
1980
0F00
0000
FBE0
71C0
71C0
73C0
75C0
79C0
71C0
71C0
FBE0
ENDCHAR

STARTCHAR afii10076
ENCODING 218
SWIDTH 604 0
DWIDTH 11 0
BBX 11 9 0 0
BITMAP
F980
72C0
7200
7600
7E00
7700
7380
71C0
F9E0
ENDCHAR

STARTCHAR afii10077
ENCODING 219
SWIDTH 573 0
DWIDTH 11 0
BBX 10 9 0 0
BITMAP
7FC0
2380
2380
2380
2380
2380
2380
A380
C7C0
ENDCHAR

STARTCHAR afii10078
ENCODING 220
SWIDTH 781 0
DWIDTH 16 0
BBX 15 9 0 0
BITMAP
701E
383C
383C
3C5C
2E5C
4E9C
479C
471C
E33E
ENDCHAR

STARTCHAR afii10079
ENCODING 221
SWIDTH 604 0
DWIDTH 12 0
BBX 11 9 0 0
BITMAP
FBE0
71C0
71C0
71C0
7FC0
71C0
71C0
71C0
FBE0
ENDCHAR

STARTCHAR afii10080
ENCODING 222
SWIDTH 573 0
DWIDTH 11 0
BBX 9 9 1 0
BITMAP
3E00
6300
E380
E380
E380
E380
E380
6300
3E00
ENDCHAR

STARTCHAR afii10081
ENCODING 223
SWIDTH 615 0
DWIDTH 12 0
BBX 11 9 0 0
BITMAP
FFE0
71C0
71C0
71C0
71C0
71C0
71C0
71C0
FBE0
ENDCHAR

STARTCHAR afii10082
ENCODING 224
SWIDTH 615 0
DWIDTH 12 0
BBX 11 13 0 -4
BITMAP
1780
F9C0
70E0
70E0
70E0
70E0
70E0
79C0
7780
7000
7000
7000
F800
ENDCHAR

STARTCHAR afii10083
ENCODING 225
SWIDTH 521 0
DWIDTH 10 0
BBX 9 9 0 0
BITMAP
1F00
7380
E180
E000
E000
E000
E080
7100
3E00
ENDCHAR

STARTCHAR afii10084
ENCODING 226
SWIDTH 583 0
DWIDTH 11 0
BBX 11 9 0 0
BITMAP
7FC0
CE60
8E20
8E20
0E00
0E00
0E00
0E00
1F00
ENDCHAR

STARTCHAR afii10085
ENCODING 227
SWIDTH 542 0
DWIDTH 10 0
BBX 11 13 0 -4
BITMAP
F9E0
70C0
7080
3880
3900
1D00
1D00
0E00
0E00
0400
0400
6800
3000
ENDCHAR

STARTCHAR afii10086
ENCODING 228
SWIDTH 823 0
DWIDTH 17 0
BBX 15 18 1 -4
BITMAP
0180
0780
0380
0380
0380
3BB8
67CC
E38E
E38E
E38E
E38E
E38E
67CC
3BB8
0380
0380
0380
07C0
ENDCHAR

STARTCHAR afii10087
ENCODING 229
SWIDTH 552 0
DWIDTH 10 0
BBX 11 9 0 0
BITMAP
FBC0
7180
3900
1E00
0E00
1700
2380
61C0
F3E0
ENDCHAR

STARTCHAR afii10088
ENCODING 230
SWIDTH 615 0
DWIDTH 12 0
BBX 11 12 0 -3
BITMAP
FBE0
71C0
71C0
71C0
71C0
71C0
71C0
71C0
FFE0
0060
0060
0020
ENDCHAR

STARTCHAR afii10089
ENCODING 231
SWIDTH 594 0
DWIDTH 12 0
BBX 11 9 0 0
BITMAP
FBE0
71C0
71C0
71C0
73C0
3DC0
01C0
01C0
03E0
ENDCHAR

STARTCHAR afii10090
ENCODING 232
SWIDTH 1022 0
DWIDTH 18 0
BBX 17 9 0 0
BITMAP
FBEF80
71C700
71C700
71C700
71C700
71C700
71C700
71C700
FFFF80
ENDCHAR

STARTCHAR afii10091
ENCODING 233
SWIDTH 1019 0
DWIDTH 18 0
BBX 17 12 0 -3
BITMAP
FBEF80
71C700
71C700
71C700
71C700
71C700
71C700
71C700
FFFF80
000180
000180
000080
ENDCHAR

STARTCHAR afii10092
ENCODING 234
SWIDTH 729 0
DWIDTH 14 0
BBX 13 9 0 0
BITMAP
FF00
CE00
8E00
8E00
0FF0
0E38
0E38
0E38
1FF0
ENDCHAR

STARTCHAR afii10093
ENCODING 235
SWIDTH 833 0
DWIDTH 16 0
BBX 15 9 0 0
BITMAP
F83E
701C
701C
701C
7F9C
71DC
71DC
71DC
FFBE
ENDCHAR

STARTCHAR afii10094
ENCODING 236
SWIDTH 563 0
DWIDTH 11 0
BBX 10 9 0 0
BITMAP
F800
7000
7000
7000
7F80
71C0
71C0
71C0
FF80
ENDCHAR

STARTCHAR afii10095
ENCODING 237
SWIDTH 521 0
DWIDTH 10 0
BBX 8 9 1 0
BITMAP
7C
CE
87
07
3F
07
87
CE
7C
ENDCHAR

STARTCHAR afii10096
ENCODING 238
SWIDTH 854 0
DWIDTH 16 0
BBX 15 9 0 0
BITMAP
F8F8
718C
738E
738E
7F8E
738E
738E
718C
F8F8
ENDCHAR

STARTCHAR afii10097
ENCODING 239
SWIDTH 604 0
DWIDTH 12 0
BBX 11 9 0 0
BITMAP
3FE0
71C0
71C0
31C0
1FC0
39C0
71C0
61C0
E3E0
ENDCHAR

STARTCHAR afii61352
ENCODING 240
SWIDTH 1115 0
DWIDTH 20 0
BBX 19 14 0 0
BITMAP
780000
181800
1C2C00
1E2400
162180
172240
132660
13A660
11A660
11E240
10E180
906000
D067E0
6027E0
ENDCHAR

STARTCHAR afii10071
ENCODING 241
SWIDTH 521 0
DWIDTH 10 0
BBX 8 12 1 0
BITMAP
66
66
00
3C
66
E7
FF
E0
E0
E1
72
3C
ENDCHAR

STARTCHAR afii10099
ENCODING 242
SWIDTH 594 0
DWIDTH 12 0
BBX 10 18 0 -4
BITMAP
1000
F000
7000
FF80
7000
7780
79C0
71C0
71C0
71C0
71C0
71C0
71C0
F9C0
0180
0180
0100
0200
ENDCHAR

STARTCHAR afii10100
ENCODING 243
SWIDTH 542 0
DWIDTH 9 0
BBX 9 12 0 0
BITMAP
0E00
1800
0000
FF80
7180
7080
7080
7000
7000
7000
7000
F800
ENDCHAR

STARTCHAR afii10101
ENCODING 244
SWIDTH 521 0
DWIDTH 10 0
BBX 8 9 1 0
BITMAP
3E
73
E1
E0
FC
E0
E1
73
3E
ENDCHAR

STARTCHAR afii10102
ENCODING 245
SWIDTH 458 0
DWIDTH 9 0
BBX 7 9 1 0
BITMAP
7C
E6
E2
F8
7C
1E
8E
CE
7C
ENDCHAR

STARTCHAR afii10103
ENCODING 246
SWIDTH 333 0
DWIDTH 6 0
BBX 5 14 0 0
BITMAP
70
70
70
00
00
10
F0
70
70
70
70
70
70
F8
ENDCHAR

STARTCHAR afii10104
ENCODING 247
SWIDTH 333 0
DWIDTH 6 0
BBX 6 12 0 0
BITMAP
CC
CC
00
10
F0
70
70
70
70
70
70
F8
ENDCHAR

STARTCHAR afii10105
ENCODING 248
SWIDTH 313 0
DWIDTH 5 0
BBX 4 18 0 -4
BITMAP
70
70
70
00
00
10
F0
70
70
70
70
70
70
70
60
60
40
80
ENDCHAR

STARTCHAR afii10106
ENCODING 249
SWIDTH 854 0
DWIDTH 16 0
BBX 15 9 0 0
BITMAP
7FC0
2380
2380
2380
23FC
238E
238E
A38E
C7FC
ENDCHAR

STARTCHAR afii10107
ENCODING 250
SWIDTH 854 0
DWIDTH 17 0
BBX 16 9 0 0
BITMAP
FBE0
71C0
71C0
71C0
7FFE
71C7
71C7
71C7
FBFE
ENDCHAR

STARTCHAR afii10108
ENCODING 251
SWIDTH 625 0
DWIDTH 12 0
BBX 11 14 0 0
BITMAP
1000
F000
7000
FF80
7000
7780
79C0
71C0
71C0
71C0
71C0
71C0
71C0
FBE0
ENDCHAR

STARTCHAR afii10109
ENCODING 252
SWIDTH 604 0
DWIDTH 11 0
BBX 11 12 0 0
BITMAP
0700
0C00
0000
F980
72C0
7200
7600
7E00
7700
7380
71C0
F9E0
ENDCHAR

STARTCHAR section
ENCODING 253
SWIDTH 573 0
DWIDTH 10 0
BBX 10 18 0 -4
BITMAP
3E00
6380
E1C0
B0C0
9800
DC00
CE00
E600
6700
7380
3980
1CC0
0EC0
0640
C340
E1C0
7180
1F00
ENDCHAR

STARTCHAR afii10110
ENCODING 254
SWIDTH 542 0
DWIDTH 10 0
BBX 11 16 0 -4
BITMAP
1980
0F00
0000
F9E0
70C0
7080
3880
3900
1D00
1D00
0E00
0E00
0400
0400
6800
3000
ENDCHAR

STARTCHAR afii10193
ENCODING 255
SWIDTH 612 0
DWIDTH 12 0
BBX 11 12 0 -3
BITMAP
FBE0
71C0
71C0
71C0
71C0
71C0
71C0
71C0
FFE0
0C00
0C00
0C00
ENDCHAR
ENDFONT
